<?xml version="1.0" encoding="iso-8859-1"?>
<!-- Generator: Adobe Illustrator 19.0.0, SVG Export Plug-In . SVG Version: 6.00 Build 0)  -->
<svg xmlns="http://www.w3.org/2000/svg" xmlns:xlink="http://www.w3.org/1999/xlink" version="1.1" id="Layer_1" x="0px" y="0px" viewBox="0 0 512 512" style="enable-background:new 0 0 512 512;" xml:space="preserve">
<path style="fill:#163457;" d="M344.082,486.922H167.917c-11.56,0-20.061-10.898-17.221-22.122l25.387-100.31  c1.995-7.882,9.089-13.404,17.221-13.404h125.387c8.132,0,15.224,5.522,17.221,13.404l25.388,100.31  C364.139,476.007,355.66,486.922,344.082,486.922z"/>
<path style="fill:#0F2A47;" d="M361.302,464.801l-25.388-100.31c-1.995-7.882-9.089-13.404-17.221-13.404h-62.694v135.837h88.082  C355.66,486.922,364.139,476.007,361.302,464.801z"/>
<g>
	<path style="fill:#1C3D66;" d="M419.003,486.922H92.995c-9.81,0-17.763-7.953-17.763-17.763s7.953-17.763,17.763-17.763h326.008   c9.81,0,17.763,7.953,17.763,17.763S428.813,486.922,419.003,486.922z"/>
	<path style="fill:#1C3D66;" d="M470.552,386.612H41.448C18.593,386.612,0,368.018,0,345.164V66.525   C0,43.67,18.593,25.077,41.448,25.077h429.105C493.407,25.077,512,43.67,512,66.525v278.639   C512,368.018,493.407,386.612,470.552,386.612z"/>
</g>
<path style="fill:#163457;" d="M470.552,25.077H255.999v361.535h214.552c22.854,0,41.448-18.593,41.448-41.448V66.525  C512,43.67,493.407,25.077,470.552,25.077z"/>
<path style="fill:#FFE365;" d="M435.026,327.401H76.974c-9.81,0-17.763-7.953-17.763-17.763V102.051  c0-9.81,7.953-17.763,17.763-17.763h358.052c9.81,0,17.763,7.953,17.763,17.763v207.586  C452.789,319.447,444.836,327.401,435.026,327.401z"/>
<path style="fill:#163457;" d="M419.003,451.395H255.999v35.527h163.004c9.81,0,17.763-7.953,17.763-17.763  S428.813,451.395,419.003,451.395z"/>
<path style="fill:#FFC733;" d="M435.026,84.288H255.999v243.113h179.025c9.81,0,17.763-7.953,17.763-17.763V102.051  C452.789,92.241,444.836,84.288,435.026,84.288z"/>
<g>
</g>
<g>
</g>
<g>
</g>
<g>
</g>
<g>
</g>
<g>
</g>
<g>
</g>
<g>
</g>
<g>
</g>
<g>
</g>
<g>
</g>
<g>
</g>
<g>
</g>
<g>
</g>
<g>
</g>
</svg>
