<svg id="Group_3" data-name="Group 3" xmlns="http://www.w3.org/2000/svg" width="30" height="30" viewBox="0 0 48 48">
  <path id="Path_9" data-name="Path 9" d="M48,24A24,24,0,1,0,20.25,47.708V30.938H14.156V24H20.25V18.712c0-6.015,3.583-9.337,9.065-9.337a36.921,36.921,0,0,1,5.372.469V15.75H31.661c-2.981,0-3.911,1.85-3.911,3.75V24h6.656l-1.064,6.938H27.75V47.708A24.006,24.006,0,0,0,48,24Z" fill="#1877f2"/>
  <path id="Path_10" data-name="Path 10" d="M33.342,30.938,34.406,24H27.75V19.5c0-1.9.93-3.75,3.911-3.75h3.026V9.844a36.9,36.9,0,0,0-5.372-.469c-5.482,0-9.065,3.323-9.065,9.337V24H14.156v6.938H20.25V47.708a24.259,24.259,0,0,0,7.5,0V30.938Z" fill="#fff"/>
</svg>
