<svg id="Group_6" data-name="Group 6" xmlns="http://www.w3.org/2000/svg" width="30" height="30" viewBox="0 0 47.972 47.991">
  <path id="Path_13" data-name="Path 13" d="M24,4.322c6.413,0,7.172.028,9.694.141a13.151,13.151,0,0,1,4.453.825A7.422,7.422,0,0,1,40.9,7.078a7.382,7.382,0,0,1,1.791,2.756,13.208,13.208,0,0,1,.825,4.453c.113,2.531.141,3.291.141,9.694s-.028,7.172-.141,9.694a13.153,13.153,0,0,1-.825,4.453,7.911,7.911,0,0,1-4.547,4.547,13.206,13.206,0,0,1-4.453.825c-2.531.112-3.291.141-9.694.141s-7.172-.028-9.694-.141a13.151,13.151,0,0,1-4.453-.825A7.421,7.421,0,0,1,7.1,40.884a7.382,7.382,0,0,1-1.791-2.756,13.205,13.205,0,0,1-.825-4.453c-.112-2.531-.141-3.291-.141-9.694s.028-7.172.141-9.694a13.15,13.15,0,0,1,.825-4.453A7.422,7.422,0,0,1,7.1,7.078,7.382,7.382,0,0,1,9.853,5.287a13.206,13.206,0,0,1,4.453-.825C16.828,4.35,17.587,4.322,24,4.322ZM24,0c-6.516,0-7.331.028-9.891.141A17.536,17.536,0,0,0,8.288,1.256,11.714,11.714,0,0,0,4.031,4.031,11.76,11.76,0,0,0,1.256,8.278,17.587,17.587,0,0,0,.141,14.1C.028,16.669,0,17.484,0,24s.028,7.331.141,9.891a17.536,17.536,0,0,0,1.116,5.822,11.714,11.714,0,0,0,2.775,4.256,11.732,11.732,0,0,0,4.247,2.766A17.588,17.588,0,0,0,14.1,47.85c2.559.113,3.375.141,9.891.141s7.331-.028,9.891-.141A17.536,17.536,0,0,0,39.7,46.734a12.261,12.261,0,0,0,7.013-7.013A17.585,17.585,0,0,0,47.831,33.9c.113-2.559.141-3.375.141-9.891s-.028-7.331-.141-9.891A17.534,17.534,0,0,0,46.716,8.3a11.241,11.241,0,0,0-2.747-4.266,11.732,11.732,0,0,0-4.247-2.766A17.587,17.587,0,0,0,33.9.15C31.331.028,30.516,0,24,0Z" fill="#d41e1e"/>
  <path id="Path_14" data-name="Path 14" d="M24,11.672A12.328,12.328,0,1,0,36.328,24,12.331,12.331,0,0,0,24,11.672ZM24,32a8,8,0,1,1,8-8A8,8,0,0,1,24,32Z" fill="#d41e1e"/>
  <path id="Path_15" data-name="Path 15" d="M39.694,11.184a2.878,2.878,0,1,1-2.878-2.878A2.879,2.879,0,0,1,39.694,11.184Z" fill="#d41e1e"/>
</svg>
