<svg id="Group_4" data-name="Group 4" xmlns="http://www.w3.org/2000/svg" width="30" height="30" viewBox="0 0 48 48">
  <path id="Path_11" data-name="Path 11" d="M24,48A24,24,0,1,0,0,24,24,24,0,0,0,24,48Z" fill="#2bb0eb"/>
  <path id="Path_12" data-name="Path 12" d="M10.864,23.747q10.495-4.572,14-6.029c6.665-2.772,8.05-3.254,8.953-3.27a1.578,1.578,0,0,1,.93.279,1.011,1.011,0,0,1,.342.65,4.228,4.228,0,0,1,.04.945c-.361,3.8-1.924,13-2.719,17.255-.336,1.8-1,2.4-1.64,2.461-1.394.128-2.452-.921-3.8-1.806-2.112-1.385-3.306-2.247-5.356-3.6-2.37-1.562-.833-2.42.517-3.822.353-.367,6.494-5.953,6.613-6.459a.49.49,0,0,0-.112-.424.553.553,0,0,0-.5-.048q-.318.072-10.123,6.691a4.557,4.557,0,0,1-2.6.961,17.136,17.136,0,0,1-3.731-.883c-1.5-.489-2.7-.747-2.594-1.577Q9.16,24.424,10.864,23.747Z" fill="#f9f9f9" fill-rule="evenodd"/>
</svg>
