<?xml version="1.0" encoding="utf-8"?>
<!-- Generator: Adobe Illustrator 18.0.0, SVG Export Plug-In . SVG Version: 6.00 Build 0)  -->
<!DOCTYPE svg PUBLIC "-//W3C//DTD SVG 1.1//EN" "http://www.w3.org/Graphics/SVG/1.1/DTD/svg11.dtd">
<svg version="1.1" id="Layer_1" xmlns="http://www.w3.org/2000/svg" xmlns:xlink="http://www.w3.org/1999/xlink" x="0px" y="0px"
	 viewBox="0 0 231.5 218" enable-background="new 0 0 231.5 218" xml:space="preserve">
<path fill="#5A9EC1" d="M29.4,189.5l23-23l20,20l-22.3,22.3l-0.7,0.7c12.8,5,27.8,2.4,38.1-7.9c10.4-10.4,13-25.8,7.7-38.6
	c0.1-0.1,0.3-0.2,0.4-0.4l22-22l7,7l5.5-5.5l62.8,62.8c0,0,8.5,8.5,19.4-2.4c10.9-10.9,2.4-19.4,2.4-19.4l-62.8-62.8l5.5-5.5l-7-7
	l20.6-20.6c0.4-0.4,0.8-0.9,1.1-1.3c0,0,0,0,0,0c0.1-0.1,0.2-0.2,0.2-0.3c13,5.5,28.5,3,39.1-7.5c1.2-1.1,2.2-2.4,3.1-3.6
	c0.2-0.2,0.4-0.5,0.6-0.7c0.8-1.2,1.6-2.3,2.2-3.6c0.2-0.4,0.4-0.8,0.6-1.2c0.1-0.2,0.2-0.5,0.4-0.7c0,0-0.1,0-0.1,0.1
	c4.3-8.9,4.7-19.2,1.1-28.4l-23,23l-20-20L191,28.4l8.6-8.6c-12.8-5-27.8-2.4-38.1,7.9c-10.6,10.6-13.1,26.2-7.5,39.1
	c-0.6,0.4-1.1,0.8-1.7,1.4l-10.7,10.7L118.4,102L58.2,41.8c0.2-9.4-13-20.6-13-20.6L38,28.3l-0.8,0.8l0,0l-6.3,6.3
	c0,0,11.2,13.3,20.6,13l60.2,60.2l-35,35c-0.1,0.1-0.1,0.2-0.2,0.2c-1.5-0.6-3-1.1-4.5-1.6c-0.3-0.1-0.6-0.2-0.9-0.2
	c-1.5-0.4-2.9-0.7-4.4-0.8c-0.3,0-0.6-0.1-0.9-0.1c-1.3-0.1-2.7-0.2-4-0.2c-0.3,0-0.5,0-0.8,0c-1.4,0.1-2.9,0.2-4.3,0.5
	c-0.4,0.1-0.9,0.2-1.3,0.2c-1.3,0.3-2.7,0.6-4,1c0,0,0,0,0.1,0c-5.2,1.7-10.1,4.5-14.2,8.6C27,161.6,24.4,176.7,29.4,189.5z"/>
<g>
	<g>
		<path fill="#BCBEC0" d="M83.1,150c0.1-0.1,0.3-0.2,0.4-0.4L159,74.1c0.5-0.5,1-1.1,1.4-1.6c13,5.5,28.5,3,39.1-7.5
			c10.3-10.3,12.9-25.4,7.9-38.1l-23,23l-20-20l23-23c-12.8-5-27.8-2.4-38.1,7.9c-10.6,10.6-13.1,26.2-7.5,39.1
			c-0.6,0.4-1.1,0.8-1.7,1.4l-75.5,75.5c-0.1,0.1-0.1,0.2-0.2,0.2c-13-5.6-28.6-3.1-39.2,7.5c-10.3,10.3-12.9,25.4-7.9,38.1l23-23
			l20,20l-23,23c12.8,5,27.8,2.4,38.1-7.9C85.8,178.2,88.3,162.8,83.1,150z"/>
		<path fill="#A3A5A8" d="M83.1,150c0.1-0.1,0.3-0.2,0.4-0.4L93,140c-0.9,0.4-1.8,0.8-2.7,1.1c-10.8,3.5-19.1-2.7-25.9-10.3
			c0,0.1-0.1,0.1-0.1,0.2c-7.9-3.4-16.9-3.8-25.1-1.2c5,0,9.9,1,14.3,3.7c8.5,5.2,14.5,14.3,17.7,23.6c1.5,4.5,2.6,9.4,0.8,14
			c-1.8,4.7-5,8.8-8.8,12c-7.2,6.1-16.1,10.6-25.3,12.8l-0.7,0.7c12.8,5,27.8,2.4,38.1-7.9C85.8,178.2,88.3,162.8,83.1,150z"/>
		<path fill="#A3A5A8" d="M141.7,53.8c-0.6,0.4-1.1,0.8-1.7,1.4l-10.7,10.7c1.6-0.9,3.2-1.6,4.8-2.3c4.8-2,10.7-3.3,15.7-1.3
			c4.9,1.9,8.1,5.9,10.3,10.5c0.1-0.1,0.2-0.2,0.2-0.3c13,5.5,28.5,3,39.1-7.5c2.9-2.9,5.2-6.3,6.9-9.8c-3.1,2.6-6.4,5-10,7.1
			c-7.4,4.3-16.4,6.7-24.7,3.6c-4.6-1.8-8.7-4.7-12-8.4c-3.6-4-7.1-8.5-8.4-13.8c-2-8.7,1-18.5,8-24.2c5.8-4.8,12.8-6,19.4-3.8
			l8.6-8.6c-12.8-5-27.8-2.4-38.1,7.9C138.6,25.3,136.1,40.9,141.7,53.8z"/>
		<path fill="#A3A5A8" d="M82.9,137.1c-1.4,1.4-3.8,1.1-5.5-0.5l0,0c-1.7-1.7-1.9-4.1-0.6-5.5l64.8-64.8c1.4-1.4,3.8-1.1,5.5,0.6
			l0,0c1.7,1.7,1.9,4.1,0.6,5.5L82.9,137.1z"/>
	</g>
	<g>
		<path fill="#D83633" d="M118.9,108.1l16.5-16.4l10,10l-5.5,5.5l62.8,62.8c0,0,8.5,8.5-2.4,19.4c-10.9,10.9-19.4,2.4-19.4,2.4
			L118,129.1l-5.5,5.5l-10-10L118.9,108.1z"/>
		<path fill="#BCBEC0" d="M32.9,8.2l-7.1,7.1l-7.1,7.1c0,0,11.2,13.3,20.6,13l76.1,76.1l6.6-6.6L45.9,28.9
			C46.1,19.5,32.9,8.2,32.9,8.2z"/>
		<path fill="#A3A5A8" d="M117.9,109.2l-93-93l-6.3,6.3c0,0,11.2,13.3,20.6,13l76.1,76.1L117.9,109.2z"/>
		<g>
			<line fill="none" stroke="#B12A27" stroke-width="6.0563" stroke-miterlimit="10" x1="134.5" y1="116.7" x2="191.7" y2="173.9"/>
			<line fill="none" stroke="#B12A27" stroke-width="6.0563" stroke-miterlimit="10" x1="127.5" y1="123.7" x2="184.8" y2="181"/>
		</g>
	</g>
</g>
</svg>
