<svg xmlns="http://www.w3.org/2000/svg" width="30" height="30" viewBox="0 0 30 30">
    <path id="Path_4" data-name="Path 4" d="M9.434,34.5c11.321,0,17.513-11.543,17.513-21.553,0-.328,0-.654-.018-.979A14.5,14.5,0,0,0,30,8.046a10.535,10.535,0,0,1-3.535,1.192,7.531,7.531,0,0,0,2.706-4.19,11.046,11.046,0,0,1-3.908,1.839A5.912,5.912,0,0,0,21.77,4.6a5.173,5.173,0,0,0-3.9.8,7.18,7.18,0,0,0-2.7,3.554,9.2,9.2,0,0,0-.39,4.845,14.993,14.993,0,0,1-7.026-2.3A18.733,18.733,0,0,1,2.088,5.881a9.117,9.117,0,0,0-.674,5.52,7.78,7.78,0,0,0,2.58,4.591A5.259,5.259,0,0,1,1.2,15.045v.1a8.717,8.717,0,0,0,1.392,4.8,6.089,6.089,0,0,0,3.546,2.628,5.032,5.032,0,0,1-2.779.13,7.735,7.735,0,0,0,2.19,3.764,5.461,5.461,0,0,0,3.56,1.5,11.685,11.685,0,0,1-4.3,2.686A10.128,10.128,0,0,1,0,31.1a15.147,15.147,0,0,0,9.434,3.4" transform="translate(0 -4.499)" fill="#1da1f2"/>
</svg>